<svg width="1217" height="773" viewBox="0 0 1217 773" fill="none" xmlns="http://www.w3.org/2000/svg">
<g opacity="0.345889">
<g clip-path="url(#clip0)">
<path fill-rule="evenodd" clip-rule="evenodd" d="M291.564 570.204C303.817 508.045 961.216 388.072 1083.26 446.947C1205.3 505.823 1174.41 629.661 918.653 657.956C662.894 686.251 279.312 632.363 291.564 570.204Z" fill="#DDE3E9"/>
</g>
</g>
<g clip-path="url(#clip1)">
<path fill-rule="evenodd" clip-rule="evenodd" d="M520.999 198.673C544.471 198.673 563.499 188.6 563.499 176.173C563.499 163.747 544.471 153.673 520.999 153.673C497.526 153.673 478.499 163.747 478.499 176.173C478.499 188.6 497.526 198.673 520.999 198.673Z" fill="#F2F2F2"/>
<path fill-rule="evenodd" clip-rule="evenodd" d="M570.499 191.673C570.499 164.059 548.337 141.673 520.999 141.673C493.66 141.673 471.499 164.059 471.499 191.673" fill="#AECFFF"/>
<rect x="518.499" width="5" height="149" fill="#AECFFF"/>
</g>
<g opacity="0.7">
<g clip-path="url(#clip2)">
<path fill-rule="evenodd" clip-rule="evenodd" d="M596.291 151C613.835 151 628.058 142.87 628.058 132.842C628.058 122.814 613.835 114.684 596.291 114.684C578.746 114.684 564.523 122.814 564.523 132.842C564.523 142.87 578.746 151 596.291 151Z" fill="#F2F2F2"/>
<path fill-rule="evenodd" clip-rule="evenodd" d="M633.291 145.351C633.291 123.066 616.725 105 596.291 105C575.856 105 559.291 123.066 559.291 145.351" fill="#AECFFF"/>
<rect x="594.291" width="5" height="128" fill="#AECFFF"/>
</g>
</g>
<path fill-rule="evenodd" clip-rule="evenodd" d="M812.952 241.206C833.723 241.206 850.562 225.05 850.562 205.12C850.562 185.191 833.723 169.034 812.952 169.034C792.18 169.034 775.342 185.191 775.342 205.12C775.342 225.05 792.18 241.206 812.952 241.206Z" fill="#FFFFF8" stroke="black" stroke-width="4"/>
<path fill-rule="evenodd" clip-rule="evenodd" d="M812.952 178.567C814.127 178.567 815.08 177.652 815.08 176.524C815.08 175.396 814.127 174.481 812.952 174.481C811.776 174.481 810.823 175.396 810.823 176.524C810.823 177.652 811.776 178.567 812.952 178.567Z" fill="black" fill-opacity="0.1"/>
<path fill-rule="evenodd" clip-rule="evenodd" d="M783.147 207.163C784.323 207.163 785.276 206.248 785.276 205.12C785.276 203.992 784.323 203.078 783.147 203.078C781.972 203.078 781.019 203.992 781.019 205.12C781.019 206.248 781.972 207.163 783.147 207.163Z" fill="black" fill-opacity="0.1"/>
<path fill-rule="evenodd" clip-rule="evenodd" d="M842.756 207.163C843.931 207.163 844.884 206.248 844.884 205.12C844.884 203.992 843.931 203.078 842.756 203.078C841.58 203.078 840.627 203.992 840.627 205.12C840.627 206.248 841.58 207.163 842.756 207.163Z" fill="black" fill-opacity="0.1"/>
<path fill-rule="evenodd" clip-rule="evenodd" d="M812.952 235.76C814.127 235.76 815.08 234.845 815.08 233.717C815.08 232.589 814.127 231.674 812.952 231.674C811.776 231.674 810.823 232.589 810.823 233.717C810.823 234.845 811.776 235.76 812.952 235.76Z" fill="black" fill-opacity="0.1"/>
<path fill-rule="evenodd" clip-rule="evenodd" d="M812.952 180.609L814.371 204.44H811.532L812.952 180.609Z" fill="#747474"/>
<path fill-rule="evenodd" clip-rule="evenodd" d="M825.511 217.171L812.465 206.579L814.472 204.653L825.511 217.171Z" fill="#747474"/>
<path fill-rule="evenodd" clip-rule="evenodd" d="M812.952 207.844C814.519 207.844 815.79 206.625 815.79 205.12C815.79 203.616 814.519 202.397 812.952 202.397C811.384 202.397 810.113 203.616 810.113 205.12C810.113 206.625 811.384 207.844 812.952 207.844Z" fill="#C5CFD6"/>
<g clip-path="url(#clip3)">
<path d="M995.425 225.82L1048.04 204.133C1049.99 203.328 1052.18 203.328 1054.13 204.133L1178.52 255.406C1184.51 257.876 1188.42 263.717 1188.42 270.198V575.876" stroke="#545655" stroke-width="8"/>
<rect x="1158.42" y="574.876" width="59" height="7" rx="3" fill="#545655"/>
<path d="M961.893 216.798C975.18 204.322 996.064 204.98 1008.54 218.266C1021.01 231.553 1020.36 252.437 1007.07 264.912L986.659 284.078L941.481 235.964L961.893 216.798Z" fill="#545655"/>
<path fill-rule="evenodd" clip-rule="evenodd" d="M956.756 264.748C969.418 277.857 981.776 286.462 984.358 283.968C986.94 281.474 978.768 268.825 966.107 255.716C953.445 242.608 941.087 234.003 938.505 236.497C935.923 238.991 944.094 251.639 956.756 264.748Z" fill="#F2F2F2"/>
</g>
<path fill-rule="evenodd" clip-rule="evenodd" d="M433.244 346.78C436.007 346.448 438.955 346.565 441.524 347.639C446.987 349.922 448.54 356.277 448.465 361.443C448.384 367.002 447.185 373.075 451.478 377.554C453.451 379.614 455.905 381.19 457.843 383.287C459.913 385.528 461.537 388.093 462.74 390.846C464.948 395.904 466.032 401.853 464.013 407.159C462.235 411.83 457.761 416.047 458.728 421.359C459.736 426.9 465.41 431.137 468.957 435.264C472.971 439.935 476.667 445.905 477.274 452.031C477.857 457.901 475.262 463.838 471.279 468.276C463.322 477.143 451.362 481.49 439.302 481.463C434.182 481.451 428.385 481.224 423.966 478.514C422.6 477.677 421.88 476.737 421.068 475.431C420.34 474.26 419.378 473.498 418.266 472.669C415.82 470.849 414.054 468.395 412.927 465.649C408.551 454.982 412.049 441.785 418.175 432.313C419.626 430.069 420.814 427.909 420.109 425.234C419.374 422.442 417.565 419.923 415.965 417.523C414.385 415.151 412.58 412.888 411.345 410.323C410.051 407.636 409.686 404.822 409.915 401.882C410.345 396.358 412.766 391.261 416.194 386.819C419.496 382.54 423.373 378.446 423.382 372.839C423.392 366.897 419.357 361.611 421.076 355.57C421.788 353.068 423.217 350.501 425.52 349.001C427.73 347.563 430.646 347.092 433.244 346.78Z" fill="#6CBA65"/>
<path fill-rule="evenodd" clip-rule="evenodd" d="M431.439 356.279C431.491 355.481 432.452 355.003 433.209 355.211C434.205 355.485 434.186 356.402 434.16 357.218C434.079 359.728 434.448 362.167 435.061 364.603C436.334 369.666 438.688 374.331 440.552 379.195C442.415 384.055 443.29 389.073 442.197 394.215C441.167 399.064 439.548 403.786 438.494 408.641C437.564 412.92 436.576 417.432 437.991 421.7C439.353 425.808 442.364 429.153 444.532 432.866C449.02 440.551 451.011 449.077 451.277 457.851C451.401 461.925 451.29 466.037 450.33 470.032C449.777 472.333 449.035 475.443 447.033 477.031C446.109 477.764 444.53 478.017 443.753 476.932C443.024 475.915 443.664 474.34 443.895 473.255C444.898 468.561 445.1 463.763 444.86 458.996C444.628 454.379 444.074 449.77 442.598 445.36C441.228 441.268 439.147 437.592 436.699 434.012C434.203 430.364 431.609 426.708 430.578 422.386C429.53 417.996 430.381 413.528 431.519 409.222C432.723 404.667 434.299 400.243 435.929 395.811C437.517 391.493 438.08 387.407 437.203 382.888C435.471 373.959 430.835 365.578 431.439 356.279Z" fill="#528B38"/>
<path fill-rule="evenodd" clip-rule="evenodd" d="M506.183 357.614C509.601 358.637 512.996 360.286 515.433 362.872C520.615 368.371 519.025 376.682 516.165 382.752C513.086 389.286 508.42 395.853 511.05 403.35C512.259 406.796 514.292 409.917 515.439 413.39C516.664 417.101 517.193 420.966 517.125 424.839C517.001 431.952 515.079 439.541 509.863 444.782C505.27 449.396 497.759 452.091 496.042 458.868C494.25 465.938 498.631 473.855 500.575 480.553C502.777 488.133 503.907 497.087 501.332 504.643C498.864 511.883 492.633 517.575 485.58 520.783C471.488 527.194 455.126 526.207 440.996 519.997C434.996 517.361 428.319 514.122 424.591 508.654C423.439 506.964 423.098 505.483 422.847 503.523C422.622 501.765 421.903 500.371 421.042 498.821C419.151 495.415 418.397 491.609 418.549 487.784C419.142 472.927 430.328 459.112 442.597 451.048C445.504 449.138 448.057 447.192 448.666 443.668C449.302 439.988 448.532 436.083 447.944 432.425C447.364 428.81 446.462 425.209 446.389 421.543C446.314 417.703 447.397 414.189 449.243 410.828C452.712 404.516 458.288 399.728 464.694 396.231C470.863 392.862 477.608 390.007 480.628 383.38C483.829 376.358 481.934 368.04 487.193 361.776C489.37 359.182 492.424 356.879 495.931 356.285C499.294 355.715 502.968 356.653 506.183 357.614Z" fill="#6CBA65"/>
<path fill-rule="evenodd" clip-rule="evenodd" d="M499.2 369.227C499.685 368.309 501.064 368.238 501.838 368.875C502.857 369.714 502.347 370.79 501.882 371.743C500.452 374.674 499.587 377.753 499.008 380.953C497.804 387.607 498.075 394.346 497.668 401.069C497.262 407.785 495.616 414.179 491.603 419.704C487.82 424.914 483.415 429.672 479.6 434.877C476.238 439.464 472.682 444.297 472.067 450.082C471.475 455.65 473.216 461.166 473.776 466.681C474.937 478.099 472.731 489.223 468.376 499.75C466.354 504.639 464.037 509.451 460.789 513.687C458.92 516.127 456.398 519.426 453.212 520.274C451.743 520.665 449.761 520.15 449.43 518.464C449.118 516.883 450.704 515.348 451.551 514.183C455.221 509.141 458.009 503.564 460.263 497.795C462.447 492.207 464.251 486.463 464.87 480.479C465.445 474.926 464.967 469.499 464.007 463.996C463.03 458.388 461.941 452.719 463.034 447.068C464.144 441.328 467.515 436.477 471.136 431.965C474.966 427.192 479.162 422.766 483.425 418.359C487.578 414.065 490.41 409.517 491.788 403.713C494.512 392.245 493.548 379.927 499.2 369.227Z" fill="#528B38"/>
<path fill-rule="evenodd" clip-rule="evenodd" d="M400.503 399.795C406.187 399.795 411.184 402.762 414.628 406.972C418.659 411.901 419.473 417.92 421.109 423.794C421.924 426.717 423.325 429.619 425.78 431.605C428.013 433.412 430.847 433.773 433.52 434.655C438.861 436.419 443.174 440.668 444.877 445.851C446.955 452.175 444.754 458.552 445.133 464.96C445.481 470.845 451.374 474.517 456.115 477.338C460.79 480.12 465.001 482.724 466.409 488.144C467.902 493.891 468.403 500.307 466.335 505.985C462.892 515.44 452.816 519.603 443.079 520.248C434.243 520.834 423.132 519.914 416.496 513.598C412.525 509.819 411.087 504.533 411.266 499.273C411.376 496.003 412.034 492.763 412.885 489.603C413.488 487.363 414.302 485.133 414.534 482.818C415.151 476.66 409.371 475.477 404.452 473.787C398.2 471.638 393.823 467.579 390.78 461.925C387.946 456.66 386.757 450.75 388.456 444.954C389.323 441.994 390.897 439.309 393.032 437.025C393.971 436.019 395.296 435.181 396.144 434.125C396.935 433.138 396.763 431.86 396.49 430.705C395.229 425.369 391.299 420.95 389.893 415.624C388.624 410.816 389.374 404.832 393.838 401.73C395.767 400.39 398.145 399.81 400.503 399.795Z" fill="#6CBA65"/>
<path fill-rule="evenodd" clip-rule="evenodd" d="M408.248 413.699C414.273 420.018 415.91 428.592 416.391 436.903C416.66 441.563 416.38 446.478 417.77 450.998C418.96 454.867 421.749 457.824 424.623 460.619C430.41 466.246 436.863 471.966 438.556 480.109C439.549 484.887 438.879 489.823 440.251 494.549C441.499 498.845 443.696 503.066 446.368 506.693C448.519 509.615 451.322 511.851 453.674 514.574C454.392 515.405 455.42 516.629 455.124 517.803C454.777 519.177 452.999 519.612 451.738 519.396C448.797 518.893 446.322 516.128 444.399 514.118C441.588 511.178 439.199 508.016 437.257 504.47C435.101 500.531 433.365 496.352 432.624 491.934C431.854 487.349 432.237 482.572 430.48 478.173C427.522 470.77 420.349 466.402 415.163 460.632C408.701 453.443 409.665 444.495 410.327 435.652C410.69 430.792 411.052 425.304 408.558 420.867C407.606 419.173 405.484 417.594 405.074 415.668C404.699 413.904 406.746 412.122 408.248 413.699Z" fill="#528B38"/>
<path fill-rule="evenodd" clip-rule="evenodd" d="M414.673 517.549C414.673 553.691 420.663 572.628 452.283 572.628C483.903 572.628 489.892 553.691 489.892 517.549H414.673Z" fill="#89C5CC"/>
<path fill-rule="evenodd" clip-rule="evenodd" d="M612.966 502.355H687.467L697.229 620.109H586.328L612.966 502.355Z" fill="#EA6966"/>
<path fill-rule="evenodd" clip-rule="evenodd" d="M612.966 502.355H635.879L649.593 620.109H586.328L612.966 502.355Z" fill="black" fill-opacity="0.1"/>
<path fill-rule="evenodd" clip-rule="evenodd" d="M728.4 525.684C720.028 543.168 706.946 585.611 706.946 585.611L718.052 590.608C718.052 590.608 746.232 545.993 763.454 515.494C762.651 522.36 761.834 530.09 761.077 538.216C759.282 557.465 761.076 599.053 762.041 611.066C762.648 618.616 773.066 617.035 774.038 611.047C774.203 610.032 774.874 606.472 775.876 601.159C780.787 575.109 793.642 506.93 793.664 490.236C793.674 483.519 780.347 477.484 772.404 482.181C766.947 476.448 756.621 473.144 750.689 482.614C746.918 488.634 737.957 505.726 728.4 525.684Z" fill="#B28B67"/>
<path fill-rule="evenodd" clip-rule="evenodd" d="M707.74 569.898L745.859 480.976C754.991 466.511 780.594 483.92 777.48 492.309C770.41 511.357 734.453 573.021 732.346 578.696L707.74 569.898Z" fill="#B57D4D"/>
<path fill-rule="evenodd" clip-rule="evenodd" d="M708.522 580.461C707.827 579.532 706.486 579.314 705.585 580.062C704.012 581.369 701.796 583.344 700.989 584.72C699.685 586.945 697.936 591.64 697.936 591.64C700.556 593.13 745.04 618.421 745.04 618.421C745.04 618.421 750.381 613.487 746.704 610.762C743.028 608.036 740.636 606.164 740.636 606.164L724.399 584.134C724.068 583.685 723.425 583.595 722.976 583.936L719.631 586.473C719.631 586.473 714.982 586.073 712.692 584.771C711.317 583.989 709.641 581.959 708.522 580.461Z" fill="white"/>
<path fill-rule="evenodd" clip-rule="evenodd" d="M762.328 605.208C761.261 604.748 760 605.22 759.6 606.311C758.901 608.217 757.983 611.022 757.983 612.613C757.983 615.181 758.853 620.109 758.853 620.109C761.879 620.109 813.244 620.109 813.244 620.109C813.244 620.109 815.364 613.207 810.796 612.657C806.228 612.106 803.207 611.663 803.207 611.663L777.952 600.576C777.44 600.351 776.843 600.59 776.627 601.105L775.017 604.952C775.017 604.952 770.788 606.895 768.145 606.895C766.551 606.895 764.058 605.955 762.328 605.208Z" fill="white"/>
<path fill-rule="evenodd" clip-rule="evenodd" d="M796.336 497.068C796.336 522.297 784.169 581.146 784.161 586.701L757.983 586.721C757.983 586.721 763.731 507.956 762.059 507.107C760.388 506.259 693.541 513.679 673.493 513.679C644.583 513.679 632.623 495.727 631.653 462.47H688.922C700.583 463.699 761.406 475.78 783.994 479.933C793.665 481.711 796.336 490.119 796.336 497.068Z" fill="#CB8A52"/>
<g filter="url(#filter0_d)">
<path fill-rule="evenodd" clip-rule="evenodd" d="M678.161 354.054C683.819 358.583 689.64 361.201 692.596 360.873C700.007 360.051 704.355 334.379 700.277 323.454C696.198 312.529 668.385 304.151 664.069 324.075C662.571 330.99 664.656 337.637 668.328 343.334L655.251 378.45L678.169 381.633L678.161 354.054Z" fill="#B28B67"/>
<path fill-rule="evenodd" clip-rule="evenodd" d="M682.924 328.961C685.322 326.33 687.543 324.377 690.203 323.433C700.256 324.989 701.69 323.375 702.549 317.38C701.086 316.007 695.621 313.279 689.268 311.843C686.12 310.463 682.21 310.097 678.245 311.119C673.439 311.768 669.128 314.005 666.654 318.971C658.879 328.728 662.041 340.449 667.895 345.116C669.882 343.367 671.644 341.648 673.234 339.989C672.315 338.817 671.859 337.295 672.086 335.714C672.532 332.598 675.459 330.428 678.623 330.868C678.856 330.9 679.083 330.945 679.305 331.003C678.889 334.919 677.587 348.181 678.471 352.973C679.512 358.622 689.911 361.418 693.604 361.931C696.794 362.374 697.111 359.385 697.339 357.242C697.372 356.934 697.402 356.643 697.44 356.382C697.518 355.838 696.798 355.739 695.985 355.628C694.93 355.483 693.717 355.317 693.887 354.125C694.074 352.825 696.04 352.082 697.8 351.416C698.898 351.001 699.916 350.616 700.37 350.146C701.803 348.662 702.525 346.493 700.719 346.242C699.732 346.105 698.298 346.477 696.572 346.925C693.966 347.601 690.696 348.45 687.3 347.978C681.689 347.199 682.908 329.186 682.924 328.961Z" fill="#191847"/>
</g>
<rect x="775.342" y="459.622" width="10.6079" height="164.286" fill="#F6E7C1"/>
<rect x="1008.72" y="459.622" width="10.6079" height="164.286" fill="#F6E7C1"/>
<rect x="747.375" y="452.025" width="297.021" height="7.59705" fill="#654A4A"/>
<rect x="789.807" y="448.226" width="80.0415" height="3.79853" fill="#C4C4C4"/>
<rect width="2.60636" height="67.7148" transform="matrix(0.955869 0.293793 -0.205771 0.9786 880.858 383.651)" fill="#C4C4C4"/>
<path fill-rule="evenodd" clip-rule="evenodd" d="M738.023 424.695L711.056 437.069L717.492 452.1L738.66 434.356C748.37 433.03 752.98 431.476 752.492 429.695C752.08 428.193 751.016 427.993 750.037 427.808C749.273 427.664 748.561 427.53 748.248 426.798C747.531 425.125 750.3 420.512 753.058 416.273C755.815 412.034 753.694 411.962 752.402 412.362C747.927 415.043 743.134 419.153 738.023 424.695ZM622.406 435.379L608.583 429.916C594.904 463.776 586.942 482.279 584.696 485.426C583.05 487.733 573.907 493.131 567.822 495.881C565.38 496.984 565.567 499.686 566.141 500.608C569.76 506.419 573.907 504.984 578.422 503.422C579.729 502.969 581.067 502.506 582.432 502.205C585.964 501.427 586.724 503.936 587.443 506.308C588.079 508.408 588.682 510.4 591.147 509.906C591.113 509.255 591.062 508.523 591.007 507.734C590.652 502.633 590.129 495.111 592.649 491.054C593.942 488.972 603.861 470.414 622.406 435.379Z" fill="#B28B67"/>
<path fill-rule="evenodd" clip-rule="evenodd" d="M670.006 362.689L676.189 361.943C687.305 380.825 687.86 423.283 695.964 429.795C703.626 435.952 715.92 432.184 730.626 426.885L733.395 440.408C718.597 457.749 689.834 470.593 679.946 460.337C664.138 443.941 666.022 391.862 670.006 362.689Z" fill="#242859"/>
<path fill-rule="evenodd" clip-rule="evenodd" d="M631.886 463.414C631.886 463.414 668.096 467.437 685.156 469.332C687.591 469.603 687.684 464.737 687.61 462.268C686.762 433.777 674.372 401.789 678.946 361.875L663.958 356.867C648.04 383.455 639.695 417.441 631.886 463.414Z" fill="#E3F8FF"/>
<path fill-rule="evenodd" clip-rule="evenodd" d="M663.142 356.776L662.967 356.757C625.168 382.021 599.172 424.805 584.978 485.11L595.8 489.346C604.55 478.364 615.891 460.06 629.825 434.434C624.641 450.227 620.309 466.535 617.755 482.127L665.707 487.455C678.672 456.351 669.051 357.433 669.051 357.433L665.74 357.065L663.142 356.776Z" fill="#303675"/>
<defs>
<filter id="filter0_d" x="599.687" y="273.494" width="151.875" height="123.832" filterUnits="userSpaceOnUse" color-interpolation-filters="sRGB">
<feFlood flood-opacity="0" result="BackgroundImageFix"/>
<feColorMatrix in="SourceAlpha" type="matrix" values="0 0 0 0 0 0 0 0 0 0 0 0 0 0 0 0 0 0 127 0"/>
<feOffset dy="4"/>
<feGaussianBlur stdDeviation="2"/>
<feColorMatrix type="matrix" values="0 0 0 0 0 0 0 0 0 0 0 0 0 0 0 0 0 0 0.25 0"/>
<feBlend mode="normal" in2="BackgroundImageFix" result="effect1_dropShadow"/>
<feBlend mode="normal" in="SourceGraphic" in2="effect1_dropShadow" result="shape"/>
</filter>
<clipPath id="clip0">
<rect x="47.2781" y="358.961" width="1105.33" height="306.731" fill="white"/>
</clipPath>
<clipPath id="clip1">
<rect x="473.499" width="95.4712" height="199.423" fill="white"/>
</clipPath>
<clipPath id="clip2">
<rect x="560.291" width="71.3623" height="150.991" fill="white"/>
</clipPath>
<clipPath id="clip3">
<rect x="935.425" y="190.876" width="282.039" height="391.248" fill="white"/>
</clipPath>
</defs>
</svg>
